<?xml version="1.0" standalone="no"?>
<!DOCTYPE svg PUBLIC "-//W3C//DTD SVG 20010904//EN"
 "http://www.w3.org/TR/2001/REC-SVG-20010904/DTD/svg10.dtd">
<svg version="1.0" xmlns="http://www.w3.org/2000/svg"
 width="505.000000pt" height="163.000000pt" viewBox="0 0 505.000000 163.000000"
 preserveAspectRatio="xMidYMid meet">

<g transform="translate(0.000000,163.000000) scale(0.100000,-0.100000)"
fill="#000000" stroke="none">
<path d="M338 1194 c-93 -52 -168 -99 -168 -104 0 -11 108 -70 141 -76 19 -4
50 9 120 49 191 110 242 142 246 152 4 14 -117 75 -147 75 -14 0 -100 -43
-192 -96z m250 48 l52 -28 -158 -90 -158 -91 -52 26 c-29 14 -52 28 -52 31 0
8 291 178 305 179 6 0 34 -12 63 -27z"/>
<path d="M540 1075 c-96 -57 -176 -108 -178 -113 -3 -10 138 -92 157 -92 21 0
381 204 378 214 -5 14 -148 95 -167 95 -8 0 -94 -47 -190 -104z m264 41 l58
-34 -88 -48 c-49 -26 -124 -67 -168 -91 -43 -24 -81 -43 -85 -43 -14 0 -111
56 -108 63 3 9 309 187 322 187 6 0 36 -16 69 -34z"/>
<path d="M1275 1124 c-89 -32 -130 -111 -100 -190 19 -50 59 -83 149 -124 84
-37 105 -71 66 -110 -31 -31 -68 -25 -106 16 l-34 35 -39 -32 c-44 -35 -44
-47 -3 -92 35 -37 116 -62 176 -53 122 19 182 172 106 269 -11 13 -61 46 -110
72 -93 48 -111 66 -93 94 21 33 75 26 116 -15 l27 -27 40 27 c25 17 38 31 34
39 -27 46 -52 72 -88 88 -49 22 -87 23 -141 3z m124 -48 c31 -16 59 -46 43
-46 -5 0 -15 7 -22 14 -35 43 -143 39 -175 -7 -21 -30 -19 -83 5 -107 11 -11
53 -35 94 -55 94 -44 126 -80 126 -142 0 -38 -5 -50 -35 -80 -33 -33 -39 -35
-89 -31 -51 4 -116 37 -116 59 0 6 16 -2 36 -17 27 -21 47 -28 85 -28 61 -1
98 30 106 90 7 53 -20 85 -111 130 -116 59 -146 97 -125 161 21 63 111 93 178
59z"/>
<path d="M2421 1131 c-18 -5 -45 -18 -60 -28 -47 -35 -55 -67 -59 -221 -4
-162 6 -223 45 -264 50 -53 198 -62 272 -17 53 32 61 67 61 256 0 193 -9 224
-74 256 -42 22 -135 30 -185 18z m158 -56 c46 -23 56 -63 56 -225 0 -122 -3
-150 -18 -173 -27 -42 -71 -60 -138 -55 -106 8 -129 50 -129 236 0 147 10 186
54 213 38 23 134 26 175 4z"/>
<path d="M2420 1062 c-48 -23 -59 -62 -59 -205 -1 -175 27 -222 134 -221 108
2 125 32 125 224 0 104 -4 148 -15 169 -25 50 -119 67 -185 33z m128 -52 c21
-19 22 -30 22 -155 0 -122 -2 -137 -20 -155 -28 -28 -90 -27 -116 1 -17 19
-19 37 -19 156 0 130 1 136 24 154 31 25 81 24 109 -1z"/>
<path d="M1727 1123 c-4 -3 -7 -26 -7 -50 l0 -43 65 0 65 0 0 -225 0 -225 55
0 55 0 0 225 0 225 60 0 60 0 0 50 0 50 -173 0 c-96 0 -177 -3 -180 -7z m303
-43 c0 -6 -27 -10 -60 -10 l-60 0 -2 -222 -3 -223 -2 223 -3 222 -65 0 c-37 0
-65 4 -65 10 0 6 50 10 130 10 80 0 130 -4 130 -10z"/>
<path d="M2940 856 l0 -276 55 0 55 0 0 75 c0 69 2 75 21 75 15 0 28 -17 54
-75 l34 -75 56 0 c30 0 55 2 55 4 0 2 -16 38 -35 80 l-34 76 24 24 c33 33 48
98 43 186 -5 85 -20 124 -61 154 -24 18 -46 21 -148 24 l-119 4 0 -276z m251
196 c27 -30 29 -37 29 -118 0 -96 -16 -140 -55 -150 -32 -8 -31 -12 5 -84 17
-33 30 -65 30 -72 -1 -7 -19 22 -41 65 l-39 77 -60 0 -59 0 -4 -77 c-1 -43 -4
29 -5 161 l-2 238 86 -3 c82 -4 87 -5 115 -37z"/>
<path d="M3000 924 l0 -147 75 6 c42 4 85 11 95 17 36 19 53 149 30 217 -14
40 -46 53 -130 53 l-70 0 0 -146z m144 80 c20 -19 22 -122 3 -148 -7 -9 -32
-20 -55 -23 l-42 -6 0 97 0 96 39 0 c23 0 46 -7 55 -16z"/>
<path d="M3530 855 l0 -275 145 0 145 0 0 50 0 50 -95 0 -95 0 0 65 0 65 75 0
75 0 0 50 0 50 -75 0 -75 0 0 60 0 60 95 0 95 0 0 50 0 50 -145 0 -145 0 0
-275z m250 225 c0 -6 -38 -10 -95 -10 l-95 0 0 -100 0 -100 75 0 c43 0 75 -4
75 -10 0 -6 -32 -10 -75 -10 l-75 0 0 -105 0 -105 97 0 c67 0 94 -3 87 -10 -7
-7 -49 -10 -105 -8 l-94 3 -3 220 c-1 121 0 225 2 232 7 16 206 19 206 3z"/>
<path d="M4080 855 l0 -275 50 0 50 0 0 275 0 275 -50 0 -50 0 0 -275z m47
-122 c-1 -65 -3 -12 -3 117 0 129 2 182 3 118 2 -65 2 -171 0 -235z"/>
<path d="M4410 1080 l0 -50 60 0 60 0 2 -222 3 -223 53 -3 52 -3 0 225 0 226
65 0 65 0 0 50 0 50 -180 0 -180 0 0 -50z m310 0 c0 -6 -28 -10 -65 -10 l-65
0 -2 -227 -3 -228 -2 228 -3 227 -60 0 c-33 0 -60 4 -60 10 0 6 50 10 130 10
80 0 130 -4 130 -10z"/>
<path d="M150 823 l0 -218 161 -92 c88 -51 169 -93 180 -93 19 0 19 8 17 207
l-3 207 -70 42 c-92 56 -105 56 -105 3 0 -62 -24 -45 -28 20 -3 51 -4 53 -55
85 -29 18 -62 38 -74 45 l-23 12 0 -218z m70 150 c50 -28 50 -28 50 -80 0 -48
2 -52 36 -72 19 -12 39 -21 45 -21 5 0 9 20 9 45 l0 46 60 -33 60 -33 0 -188
c0 -104 -4 -187 -9 -185 -5 2 -76 41 -159 88 l-151 85 -1 188 c0 103 2 187 5
187 3 0 27 -12 55 -27z"/>
<path d="M728 937 l-178 -102 0 -207 c0 -197 1 -208 19 -208 19 0 114 50 266
141 l90 54 0 209 c0 131 -4 210 -10 212 -5 2 -90 -43 -187 -99z m172 -124 l-1
-188 -155 -89 c-85 -48 -157 -86 -159 -84 -2 2 -5 83 -7 180 -2 132 0 180 10
190 14 14 293 177 305 178 4 0 7 -84 7 -187z"/>
</g>
</svg>
